<svg width="388" height="439" viewBox="0 0 388 439" fill="none" xmlns="http://www.w3.org/2000/svg">
<g filter="url(#filter0_d_48_309)">
<path d="M4 37.3297C4 21.0252 17.0219 7.70572 33.3222 7.33735L327.322 0.693283C344.152 0.312953 358 13.8517 358 30.6856V398.783C358 415.819 343.83 429.436 326.808 428.759L32.8076 417.064C16.7156 416.424 4 403.192 4 387.088V37.3297Z" fill="url(#paint0_linear_48_309)"/>
</g>
<g filter="url(#filter1_d_48_309)">
<path d="M4 323.449C4 306.515 18.0079 292.937 34.9344 293.464L328.934 302.626C345.131 303.13 358 316.406 358 332.611V400.653C358 417.739 343.752 431.374 326.683 430.624L32.6829 417.704C16.642 416.999 4 403.789 4 387.733V323.449Z" fill="white"/>
</g>
<g filter="url(#filter2_d_48_309)">
<circle cx="180.5" cy="286.5" r="42.5" fill="white"/>
</g>
<path d="M196 287.5L172.75 301.789L172.75 273.211L196 287.5Z" fill="#C9C9C9"/>
<path d="M30.6584 52.5037C30.6584 46.7068 35.3577 42.0075 41.1547 42.0075L154.004 42.0075C159.801 42.0075 164.5 46.7068 164.5 52.5037V52.5037C164.5 58.3007 159.801 63 154.004 63L41.1547 63C35.3577 63 30.6584 58.3007 30.6584 52.5037V52.5037Z" fill="#9ED9FB" fill-opacity="0.5"/>
<path d="M31.4302 94.9998C31.4302 89.4769 35.9073 84.9998 41.4302 84.9998L85 84.9999C90.5229 84.9999 95 89.477 95 94.9999L95 136.5C95 142.023 90.5229 146.5 85 146.5L41.4302 146.5C35.9073 146.5 31.4302 142.023 31.4302 136.5L31.4302 94.9998Z" fill="#8ACFF6"/>
<path d="M59.7331 372.789C59.5031 367.079 64.1824 362.381 69.8934 362.588L293.053 370.697C298.178 370.883 302.295 374.984 302.501 380.107V380.107C302.731 385.818 298.052 390.515 292.341 390.308L69.1808 382.199C64.0564 382.013 59.9395 377.912 59.7331 372.789V372.789Z" fill="#CCCCCC" fill-opacity="0.5"/>
<defs>
<filter id="filter0_d_48_309" x="0" y="0.685547" width="362" height="436.098" filterUnits="userSpaceOnUse" color-interpolation-filters="sRGB">
<feFlood flood-opacity="0" result="BackgroundImageFix"/>
<feColorMatrix in="SourceAlpha" type="matrix" values="0 0 0 0 0 0 0 0 0 0 0 0 0 0 0 0 0 0 127 0" result="hardAlpha"/>
<feOffset dy="4"/>
<feGaussianBlur stdDeviation="2"/>
<feComposite in2="hardAlpha" operator="out"/>
<feColorMatrix type="matrix" values="0 0 0 0 0 0 0 0 0 0 0 0 0 0 0 0 0 0 0.25 0"/>
<feBlend mode="normal" in2="BackgroundImageFix" result="effect1_dropShadow_48_309"/>
<feBlend mode="normal" in="SourceGraphic" in2="effect1_dropShadow_48_309" result="shape"/>
</filter>
<filter id="filter1_d_48_309" x="0" y="293.449" width="362" height="145.204" filterUnits="userSpaceOnUse" color-interpolation-filters="sRGB">
<feFlood flood-opacity="0" result="BackgroundImageFix"/>
<feColorMatrix in="SourceAlpha" type="matrix" values="0 0 0 0 0 0 0 0 0 0 0 0 0 0 0 0 0 0 127 0" result="hardAlpha"/>
<feOffset dy="4"/>
<feGaussianBlur stdDeviation="2"/>
<feComposite in2="hardAlpha" operator="out"/>
<feColorMatrix type="matrix" values="0 0 0 0 0 0 0 0 0 0 0 0 0 0 0 0 0 0 0.25 0"/>
<feBlend mode="normal" in2="BackgroundImageFix" result="effect1_dropShadow_48_309"/>
<feBlend mode="normal" in="SourceGraphic" in2="effect1_dropShadow_48_309" result="shape"/>
</filter>
<filter id="filter2_d_48_309" x="134" y="244" width="93" height="93" filterUnits="userSpaceOnUse" color-interpolation-filters="sRGB">
<feFlood flood-opacity="0" result="BackgroundImageFix"/>
<feColorMatrix in="SourceAlpha" type="matrix" values="0 0 0 0 0 0 0 0 0 0 0 0 0 0 0 0 0 0 127 0" result="hardAlpha"/>
<feOffset dy="4"/>
<feGaussianBlur stdDeviation="2"/>
<feComposite in2="hardAlpha" operator="out"/>
<feColorMatrix type="matrix" values="0 0 0 0 0 0 0 0 0 0 0 0 0 0 0 0 0 0 0.25 0"/>
<feBlend mode="normal" in2="BackgroundImageFix" result="effect1_dropShadow_48_309"/>
<feBlend mode="normal" in="SourceGraphic" in2="effect1_dropShadow_48_309" result="shape"/>
</filter>
<linearGradient id="paint0_linear_48_309" x1="195.273" y1="22.1332" x2="195.273" y2="410.889" gradientUnits="userSpaceOnUse">
<stop stop-color="#80CCF8"/>
<stop offset="1" stop-color="#2289C4"/>
</linearGradient>
</defs>
</svg>
