<svg width="388" height="405" viewBox="0 0 388 405" fill="none" xmlns="http://www.w3.org/2000/svg">
<g filter="url(#filter0_d_48_185)">
<path d="M4 36.4154C4 20.0901 17.0542 6.76149 33.3761 6.42195L327.376 0.306002C344.185 -0.0436705 358 13.4868 358 30.2995V364.371C358 381.37 343.89 394.973 326.902 394.351L32.9022 383.585C16.7717 382.995 4 369.747 4 353.605V36.4154Z" fill="url(#paint0_linear_48_185)" shape-rendering="crispEdges"/>
</g>
<g filter="url(#filter1_d_48_185)">
<path d="M4 299.792C4 282.886 17.9616 269.319 34.8602 269.804L328.86 278.238C345.087 278.703 358 291.992 358 308.225V366.093C358 383.137 343.818 396.757 326.787 396.068L32.7874 384.175C16.7038 383.524 4 370.296 4 354.2V299.792Z" fill="white"/>
</g>
<g filter="url(#filter2_d_48_185)">
<ellipse cx="180.5" cy="263.396" rx="42.5" ry="39.1218" fill="white"/>
</g>
<path d="M196 264.316L172.75 277.47L172.75 251.163L196 264.316Z" fill="#C9C9C9"/>
<path d="M30.6584 48.0852C30.6584 42.7159 35.0406 38.338 40.415 38.338L154.914 38.338C160.222 38.338 164.5 42.612 164.5 47.9146V47.9146C164.5 53.2839 160.118 57.6619 154.743 57.6619L40.2442 57.6619C34.9365 57.6619 30.6584 53.3879 30.6584 48.0852V48.0852Z" fill="#F2E4CD" fill-opacity="0.43"/>
<path d="M31.4301 88.0019C31.4301 82.4453 35.9679 77.9126 41.5307 77.9126L85.0895 77.9127C90.5781 77.9127 95 82.3297 95 87.8122L95 124.435C95 129.992 90.4623 134.524 84.8995 134.524L41.3407 134.525C35.8521 134.525 31.4302 130.108 31.4302 124.625L31.4301 88.0019Z" fill="white" fill-opacity="0.22"/>
<path d="M59.7375 342.926C59.5059 337.635 63.8672 333.235 69.1681 333.413L293.861 340.928C298.543 341.085 302.292 344.79 302.497 349.464V349.464C302.728 354.755 298.367 359.155 293.066 358.977L68.3735 351.462C63.6909 351.306 59.942 347.6 59.7375 342.926V342.926Z" fill="#CCCCCC" fill-opacity="0.5"/>
<defs>
<filter id="filter0_d_48_185" x="0" y="0.299805" width="362" height="402.071" filterUnits="userSpaceOnUse" color-interpolation-filters="sRGB">
<feFlood flood-opacity="0" result="BackgroundImageFix"/>
<feColorMatrix in="SourceAlpha" type="matrix" values="0 0 0 0 0 0 0 0 0 0 0 0 0 0 0 0 0 0 127 0" result="hardAlpha"/>
<feOffset dy="4"/>
<feGaussianBlur stdDeviation="2"/>
<feComposite in2="hardAlpha" operator="out"/>
<feColorMatrix type="matrix" values="0 0 0 0 0 0 0 0 0 0 0 0 0 0 0 0 0 0 0.25 0"/>
<feBlend mode="normal" in2="BackgroundImageFix" result="effect1_dropShadow_48_185"/>
<feBlend mode="normal" in="SourceGraphic" in2="effect1_dropShadow_48_185" result="shape"/>
</filter>
<filter id="filter1_d_48_185" x="0" y="269.792" width="362" height="134.301" filterUnits="userSpaceOnUse" color-interpolation-filters="sRGB">
<feFlood flood-opacity="0" result="BackgroundImageFix"/>
<feColorMatrix in="SourceAlpha" type="matrix" values="0 0 0 0 0 0 0 0 0 0 0 0 0 0 0 0 0 0 127 0" result="hardAlpha"/>
<feOffset dy="4"/>
<feGaussianBlur stdDeviation="2"/>
<feComposite in2="hardAlpha" operator="out"/>
<feColorMatrix type="matrix" values="0 0 0 0 0 0 0 0 0 0 0 0 0 0 0 0 0 0 0.25 0"/>
<feBlend mode="normal" in2="BackgroundImageFix" result="effect1_dropShadow_48_185"/>
<feBlend mode="normal" in="SourceGraphic" in2="effect1_dropShadow_48_185" result="shape"/>
</filter>
<filter id="filter2_d_48_185" x="134" y="224.274" width="93" height="86.2432" filterUnits="userSpaceOnUse" color-interpolation-filters="sRGB">
<feFlood flood-opacity="0" result="BackgroundImageFix"/>
<feColorMatrix in="SourceAlpha" type="matrix" values="0 0 0 0 0 0 0 0 0 0 0 0 0 0 0 0 0 0 127 0" result="hardAlpha"/>
<feOffset dy="4"/>
<feGaussianBlur stdDeviation="2"/>
<feComposite in2="hardAlpha" operator="out"/>
<feColorMatrix type="matrix" values="0 0 0 0 0 0 0 0 0 0 0 0 0 0 0 0 0 0 0.25 0"/>
<feBlend mode="normal" in2="BackgroundImageFix" result="effect1_dropShadow_48_185"/>
<feBlend mode="normal" in="SourceGraphic" in2="effect1_dropShadow_48_185" result="shape"/>
</filter>
<linearGradient id="paint0_linear_48_185" x1="180.081" y1="6.22011" x2="180.081" y2="395.489" gradientUnits="userSpaceOnUse">
<stop stop-color="#F8C880" stop-opacity="0.56"/>
<stop offset="1" stop-color="#FBC87C"/>
</linearGradient>
</defs>
</svg>
