<svg width="298" height="279" viewBox="0 0 298 279" fill="none" xmlns="http://www.w3.org/2000/svg">
<g filter="url(#filter0_d_53_275)">
<path d="M209.5 14.5H88.5L18 85V186.5L88.5 257H209.5L280 186.5V85L209.5 14.5Z" stroke="#54ACDF" stroke-width="28"/>
<circle cx="148.5" cy="134.5" r="90.5" stroke="#54ACDF" stroke-width="9"/>
<path d="M100.5 16H185.5L177.5 46L162.5 42L116.5 50L79 76L55 138.5L70 182L94 206.5L138 223L197 216.5L220.5 247L100.5 250.5L25.5 195.5L16 90.5L100.5 16Z" fill="#54ACDF"/>
<path d="M195.5 253L110.5 253L118.5 223L133.5 227L179.5 219L217 193L235 163L241 130.5L226 87L202 62.5L158 46L99 52.5L75.5 22L195.5 18.5L270.5 73.5L280 178.5L195.5 253Z" fill="#54ACDF"/>
<path d="M5 193.5L4.99999 78.5L50 78.5L50 193.5L5 193.5Z" fill="url(#paint0_linear_53_275)"/>
<path d="M82 0H217V47.5H82V0Z" fill="url(#paint1_linear_53_275)"/>
<path d="M217 270.5L82 270.5L82 221.5L217 221.5L217 270.5Z" fill="url(#paint2_linear_53_275)"/>
<path d="M294 77.5L294 192.5L249 192.5L249 77.5L294 77.5Z" fill="url(#paint3_linear_53_275)"/>
</g>
<path d="M106 115.265C106 112.503 108.239 110.265 111 110.265H188C190.761 110.265 193 112.503 193 115.265V137.954H106V115.265Z" fill="#54ACDF"/>
<path d="M193 164C193 166.761 190.761 169 188 169H111C108.239 169 106 166.761 106 164V141.31H193V164Z" fill="#54ACDF"/>
<path d="M143.41 141.311V147.184" stroke="white" stroke-width="2"/>
<path d="M155.59 148.023L142.54 148.023" stroke="white" stroke-width="2"/>
<path d="M154.72 141.311L154.72 147.184" stroke="white" stroke-width="2"/>
<path d="M137.84 105.552H162.03C163.135 105.552 164.03 106.447 164.03 107.552V118.333H135.84V107.552C135.84 106.447 136.735 105.552 137.84 105.552Z" stroke="#54ACDF" stroke-width="4"/>
<defs>
<filter id="filter0_d_53_275" x="0" y="0" width="298" height="279" filterUnits="userSpaceOnUse" color-interpolation-filters="sRGB">
<feFlood flood-opacity="0" result="BackgroundImageFix"/>
<feColorMatrix in="SourceAlpha" type="matrix" values="0 0 0 0 0 0 0 0 0 0 0 0 0 0 0 0 0 0 127 0" result="hardAlpha"/>
<feOffset dy="4"/>
<feGaussianBlur stdDeviation="2"/>
<feComposite in2="hardAlpha" operator="out"/>
<feColorMatrix type="matrix" values="0 0 0 0 0 0 0 0 0 0 0 0 0 0 0 0 0 0 0.25 0"/>
<feBlend mode="normal" in2="BackgroundImageFix" result="effect1_dropShadow_53_275"/>
<feBlend mode="normal" in="SourceGraphic" in2="effect1_dropShadow_53_275" result="shape"/>
</filter>
<linearGradient id="paint0_linear_53_275" x1="5" y1="136" x2="50" y2="136" gradientUnits="userSpaceOnUse">
<stop stop-color="#ABD6EF" stop-opacity="0.47"/>
<stop offset="1" stop-color="#D9D9D9" stop-opacity="0"/>
</linearGradient>
<linearGradient id="paint1_linear_53_275" x1="149.5" y1="0" x2="149.5" y2="47.5" gradientUnits="userSpaceOnUse">
<stop stop-color="#ABD6EF" stop-opacity="0.47"/>
<stop offset="1" stop-color="#D9D9D9" stop-opacity="0"/>
</linearGradient>
<linearGradient id="paint2_linear_53_275" x1="149.5" y1="270.5" x2="149" y2="246.5" gradientUnits="userSpaceOnUse">
<stop stop-color="#ABD6EF" stop-opacity="0.47"/>
<stop offset="1" stop-color="#D9D9D9" stop-opacity="0"/>
</linearGradient>
<linearGradient id="paint3_linear_53_275" x1="294" y1="135" x2="249" y2="135" gradientUnits="userSpaceOnUse">
<stop stop-color="#ABD6EF" stop-opacity="0.47"/>
<stop offset="1" stop-color="#D9D9D9" stop-opacity="0"/>
</linearGradient>
</defs>
</svg>
