<svg width="298" height="279" viewBox="0 0 298 279" fill="none" xmlns="http://www.w3.org/2000/svg">
<g filter="url(#filter0_d_53_275)">
<path d="M209.5 14.5H88.5L18 85V186.5L88.5 257H209.5L280 186.5V85L209.5 14.5Z" stroke="#0E94E1" stroke-width="28"/>
<circle cx="148.5" cy="134.5" r="90.5" stroke="#0E94E1" stroke-width="9"/>
<path d="M100.5 16H185.5L177.5 46L162.5 42L116.5 50L79 76L55 138.5L70 182L94 206.5L138 223L197 216.5L220.5 247L100.5 250.5L25.5 195.5L16 90.5L100.5 16Z" fill="#0E94E1"/>
<path d="M195.5 253L110.5 253L118.5 223L133.5 227L179.5 219L217 193L235 163L241 130.5L226 87L202 62.5L158 46L99 52.5L75.5 22L195.5 18.5L270.5 73.5L280 178.5L195.5 253Z" fill="#0E94E1"/>
<path d="M5 193.5L4.99999 78.5L50 78.5L50 193.5L5 193.5Z" fill="url(#paint0_linear_53_275)"/>
<path d="M82 0H217V47.5H82V0Z" fill="url(#paint1_linear_53_275)"/>
<path d="M217 270.5L82 270.5L82 221.5L217 221.5L217 270.5Z" fill="url(#paint2_linear_53_275)"/>
<path d="M294 77.5L294 192.5L249 192.5L249 77.5L294 77.5Z" fill="url(#paint3_linear_53_275)"/>
</g>
<g filter="url(#filter1_d_53_275)">
<path d="M141.817 147.614V147.251C141.857 143.408 142.259 140.349 143.024 138.075C143.789 135.801 144.875 133.96 146.284 132.551C147.693 131.143 149.383 129.845 151.355 128.658C152.542 127.933 153.609 127.078 154.555 126.092C155.5 125.086 156.245 123.929 156.788 122.621C157.352 121.313 157.634 119.864 157.634 118.274C157.634 116.302 157.171 114.592 156.245 113.143C155.319 111.694 154.082 110.577 152.532 109.792C150.983 109.007 149.262 108.615 147.371 108.615C145.721 108.615 144.131 108.957 142.602 109.641C141.072 110.326 139.794 111.402 138.768 112.871C137.742 114.34 137.148 116.262 136.987 118.636H129.381C129.542 115.215 130.427 112.288 132.037 109.853C133.667 107.418 135.81 105.556 138.466 104.268C141.143 102.981 144.111 102.337 147.371 102.337C150.912 102.337 153.991 103.041 156.607 104.45C159.243 105.858 161.276 107.79 162.705 110.245C164.153 112.7 164.878 115.497 164.878 118.636C164.878 120.85 164.536 122.852 163.852 124.643C163.188 126.434 162.222 128.034 160.954 129.442C159.706 130.851 158.197 132.099 156.426 133.185C154.655 134.292 153.237 135.459 152.17 136.687C151.104 137.894 150.329 139.333 149.846 141.003C149.363 142.673 149.101 144.756 149.061 147.251V147.614H141.817ZM145.68 165.483C144.191 165.483 142.913 164.95 141.847 163.883C140.78 162.817 140.247 161.539 140.247 160.05C140.247 158.561 140.78 157.283 141.847 156.216C142.913 155.15 144.191 154.616 145.68 154.616C147.17 154.616 148.447 155.15 149.514 156.216C150.58 157.283 151.114 158.561 151.114 160.05C151.114 161.036 150.862 161.941 150.359 162.766C149.876 163.591 149.222 164.255 148.397 164.759C147.592 165.241 146.687 165.483 145.68 165.483Z" fill="#0E94E1"/>
</g>
<defs>
<filter id="filter0_d_53_275" x="0" y="0" width="298" height="279" filterUnits="userSpaceOnUse" color-interpolation-filters="sRGB">
<feFlood flood-opacity="0" result="BackgroundImageFix"/>
<feColorMatrix in="SourceAlpha" type="matrix" values="0 0 0 0 0 0 0 0 0 0 0 0 0 0 0 0 0 0 127 0" result="hardAlpha"/>
<feOffset dy="4"/>
<feGaussianBlur stdDeviation="2"/>
<feComposite in2="hardAlpha" operator="out"/>
<feColorMatrix type="matrix" values="0 0 0 0 0 0 0 0 0 0 0 0 0 0 0 0 0 0 0.25 0"/>
<feBlend mode="normal" in2="BackgroundImageFix" result="effect1_dropShadow_53_275"/>
<feBlend mode="normal" in="SourceGraphic" in2="effect1_dropShadow_53_275" result="shape"/>
</filter>
<filter id="filter1_d_53_275" x="125.381" y="102.337" width="43.4972" height="71.1465" filterUnits="userSpaceOnUse" color-interpolation-filters="sRGB">
<feFlood flood-opacity="0" result="BackgroundImageFix"/>
<feColorMatrix in="SourceAlpha" type="matrix" values="0 0 0 0 0 0 0 0 0 0 0 0 0 0 0 0 0 0 127 0" result="hardAlpha"/>
<feOffset dy="4"/>
<feGaussianBlur stdDeviation="2"/>
<feComposite in2="hardAlpha" operator="out"/>
<feColorMatrix type="matrix" values="0 0 0 0 0 0 0 0 0 0 0 0 0 0 0 0 0 0 0.25 0"/>
<feBlend mode="normal" in2="BackgroundImageFix" result="effect1_dropShadow_53_275"/>
<feBlend mode="normal" in="SourceGraphic" in2="effect1_dropShadow_53_275" result="shape"/>
</filter>
<linearGradient id="paint0_linear_53_275" x1="5" y1="136" x2="50" y2="136" gradientUnits="userSpaceOnUse">
<stop stop-color="#E3EBEF" stop-opacity="0.47"/>
<stop offset="1" stop-color="#D9D9D9" stop-opacity="0"/>
</linearGradient>
<linearGradient id="paint1_linear_53_275" x1="149.5" y1="0" x2="149.5" y2="47.5" gradientUnits="userSpaceOnUse">
<stop stop-color="#E7F3FA" stop-opacity="0.47"/>
<stop offset="1" stop-color="#D9D9D9" stop-opacity="0"/>
</linearGradient>
<linearGradient id="paint2_linear_53_275" x1="149.5" y1="270.5" x2="149" y2="246.5" gradientUnits="userSpaceOnUse">
<stop stop-color="#E5F3FB" stop-opacity="0.47"/>
<stop offset="1" stop-color="#D9D9D9" stop-opacity="0"/>
</linearGradient>
<linearGradient id="paint3_linear_53_275" x1="294" y1="135" x2="249" y2="135" gradientUnits="userSpaceOnUse">
<stop stop-color="#F3FAFF" stop-opacity="0.47"/>
<stop offset="1" stop-color="#D9D9D9" stop-opacity="0"/>
</linearGradient>
</defs>
</svg>
