<svg width="298" height="279" viewBox="0 0 298 279" fill="none" xmlns="http://www.w3.org/2000/svg">
<g filter="url(#filter0_d_53_239)">
<path d="M209.5 14.5H88.5L18 85V186.5L88.5 257H209.5L280 186.5V85L209.5 14.5Z" stroke="#A3D7D7" stroke-width="28"/>
<circle cx="148.5" cy="134.5" r="90.5" stroke="#A3D7D7" stroke-width="9"/>
<path d="M100.5 16H185.5L177.5 46L162.5 42L116.5 50L79 76L55 138.5L70 182L94 206.5L138 223L197 216.5L220.5 247L100.5 250.5L25.5 195.5L16 90.5L100.5 16Z" fill="#A3D7D7"/>
<path d="M195.5 253L110.5 253L118.5 223L133.5 227L179.5 219L217 193L235 163L241 130.5L226 87L202 62.5L158 46L99 52.5L75.5 22L195.5 18.5L270.5 73.5L280 178.5L195.5 253Z" fill="#A3D7D7"/>
<path d="M5 193.5L4.99999 78.5L50 78.5L50 193.5L5 193.5Z" fill="url(#paint0_linear_53_239)"/>
<path d="M82 0H217V47.5H82V0Z" fill="url(#paint1_linear_53_239)"/>
<path d="M217 270.5L82 270.5L82 221.5L217 221.5L217 270.5Z" fill="url(#paint2_linear_53_239)"/>
<path d="M294 77.5L294 192.5L249 192.5L249 77.5L294 77.5Z" fill="url(#paint3_linear_53_239)"/>
</g>
<path d="M126.403 114.75C126.403 121.239 121.074 123.261 114.5 123.261C107.926 123.261 102.597 121.239 102.597 114.75C102.597 108.261 107.926 103 114.5 103C121.074 103 126.403 108.261 126.403 114.75Z" fill="#4CC5C5"/>
<path d="M94 143.636C94 133.091 102.549 124.542 113.094 124.542H115.906C126.451 124.542 135 133.091 135 143.636V143.636C135 147.151 132.15 150 128.635 150H100.365C96.8495 150 94 147.151 94 143.636V143.636Z" fill="#4CC5C5"/>
<path d="M167 120C167 129.941 158.941 133.038 149 133.038C139.059 133.038 131 129.941 131 120C131 110.059 139.059 102 149 102C158.941 102 167 110.059 167 120Z" fill="#4CC5C5"/>
<path d="M118 164.25C118 148.096 131.096 135 147.25 135H150.75C166.904 135 180 148.096 180 164.25V164.25C180 169.635 175.635 174 170.25 174H127.75C122.365 174 118 169.635 118 164.25V164.25Z" fill="#4CC5C5"/>
<path d="M194.403 113.75C194.403 120.239 189.074 122.261 182.5 122.261C175.926 122.261 170.597 120.239 170.597 113.75C170.597 107.261 175.926 102 182.5 102C189.074 102 194.403 107.261 194.403 113.75Z" fill="#4CC5C5"/>
<path d="M162 142.636C162 132.091 170.549 123.542 181.094 123.542H183.906C194.451 123.542 203 132.091 203 142.636V142.636C203 146.151 200.15 149 196.635 149H168.365C164.85 149 162 146.151 162 142.636V142.636Z" fill="#4CC5C5"/>
<defs>
<filter id="filter0_d_53_239" x="0" y="0" width="298" height="279" filterUnits="userSpaceOnUse" color-interpolation-filters="sRGB">
<feFlood flood-opacity="0" result="BackgroundImageFix"/>
<feColorMatrix in="SourceAlpha" type="matrix" values="0 0 0 0 0 0 0 0 0 0 0 0 0 0 0 0 0 0 127 0" result="hardAlpha"/>
<feOffset dy="4"/>
<feGaussianBlur stdDeviation="2"/>
<feComposite in2="hardAlpha" operator="out"/>
<feColorMatrix type="matrix" values="0 0 0 0 0 0 0 0 0 0 0 0 0 0 0 0 0 0 0.25 0"/>
<feBlend mode="normal" in2="BackgroundImageFix" result="effect1_dropShadow_53_239"/>
<feBlend mode="normal" in="SourceGraphic" in2="effect1_dropShadow_53_239" result="shape"/>
</filter>
<linearGradient id="paint0_linear_53_239" x1="5" y1="136" x2="50" y2="136" gradientUnits="userSpaceOnUse">
<stop stop-color="#C3EAEA"/>
<stop offset="1" stop-color="#D9D9D9" stop-opacity="0"/>
</linearGradient>
<linearGradient id="paint1_linear_53_239" x1="149.5" y1="0" x2="149.5" y2="47.5" gradientUnits="userSpaceOnUse">
<stop stop-color="#C3EAEA"/>
<stop offset="1" stop-color="#D9D9D9" stop-opacity="0"/>
</linearGradient>
<linearGradient id="paint2_linear_53_239" x1="149.5" y1="270.5" x2="149" y2="246.5" gradientUnits="userSpaceOnUse">
<stop stop-color="#C2E8E8"/>
<stop offset="1" stop-color="#D9D9D9" stop-opacity="0"/>
</linearGradient>
<linearGradient id="paint3_linear_53_239" x1="294" y1="135" x2="249" y2="135" gradientUnits="userSpaceOnUse">
<stop stop-color="#C3EAEA"/>
<stop offset="1" stop-color="#D9D9D9" stop-opacity="0"/>
</linearGradient>
</defs>
</svg>
