<svg width="290" height="271" viewBox="0 0 290 271" fill="none" xmlns="http://www.w3.org/2000/svg">
<path d="M205.5 14.5H84.5L14 85V186.5L84.5 257H205.5L276 186.5V85L205.5 14.5Z" stroke="#FED604" stroke-width="28"/>
<circle cx="144.5" cy="134.5" r="90.5" stroke="#FED604" stroke-width="9"/>
<path d="M96.5 16H181.5L173.5 46L158.5 42L112.5 50L75 76L51 138.5L66 182L90 206.5L134 223L193 216.5L216.5 247L96.5 250.5L21.5 195.5L12 90.5L96.5 16Z" fill="#FFD600"/>
<path d="M191.5 253L106.5 253L114.5 223L129.5 227L175.5 219L213 193L231 163L237 130.5L222 87L198 62.5L154 46L95 52.5L71.5 22L191.5 18.5L266.5 73.5L276 178.5L191.5 253Z" fill="#FFD600"/>
<path d="M1 193.5L0.999995 78.5L46 78.5L46 193.5L1 193.5Z" fill="url(#paint0_linear_54_381)"/>
<path d="M78 0H213V47.5H78V0Z" fill="url(#paint1_linear_54_381)"/>
<path d="M213 270.5L78 270.5L78 221.5L213 221.5L213 270.5Z" fill="url(#paint2_linear_54_381)"/>
<path d="M290 77.5L290 192.5L245 192.5L245 77.5L290 77.5Z" fill="url(#paint3_linear_54_381)"/>
<ellipse cx="143" cy="110" rx="26" ry="25" fill="#FED604"/>
<path d="M134.34 149.737C132.513 148.611 130.138 146 130.138 146C130.138 146 123.245 147.656 119.15 149.737C116.176 151.249 114.152 151.726 111.878 154.409C109.625 157.067 108 162.818 108 162.818L111.878 171.228C111.878 171.228 116.102 175.558 119.15 177.768C123.145 180.666 125.628 181.968 130.138 183.561C136.157 185.686 139.863 186.385 146.136 185.803C149.923 185.452 152.087 185.023 155.67 183.561C159.583 181.964 161.561 180.381 165.042 177.768C168.102 175.471 170.042 174.369 172.475 171.228C174.707 168.347 177 162.818 177 162.818C177 162.818 174.8 157.19 172.475 154.409C170.624 152.195 169.305 151.241 166.981 149.737C163.551 147.517 157.447 146 157.447 146C157.447 146 154.447 148.606 152.276 149.737C150 150.924 148.609 151.396 146.136 151.793C143.761 152.175 142.365 152.221 139.995 151.793C137.708 151.38 136.382 150.998 134.34 149.737Z" fill="#FED604" stroke="#FFD600" stroke-width="9"/>
<defs>
<linearGradient id="paint0_linear_54_381" x1="0.999997" y1="136" x2="46" y2="136" gradientUnits="userSpaceOnUse">
<stop stop-color="#FFF3C9"/>
<stop offset="1" stop-color="#D9D9D9" stop-opacity="0"/>
</linearGradient>
<linearGradient id="paint1_linear_54_381" x1="145.5" y1="0" x2="145.5" y2="47.5" gradientUnits="userSpaceOnUse">
<stop stop-color="#FCEFC3"/>
<stop offset="1" stop-color="#D9D9D9" stop-opacity="0"/>
</linearGradient>
<linearGradient id="paint2_linear_54_381" x1="145.5" y1="270.5" x2="145" y2="246.5" gradientUnits="userSpaceOnUse">
<stop stop-color="#FDF0C2"/>
<stop offset="1" stop-color="#D9D9D9" stop-opacity="0"/>
</linearGradient>
<linearGradient id="paint3_linear_54_381" x1="290" y1="135" x2="245" y2="135" gradientUnits="userSpaceOnUse">
<stop stop-color="#FFF3C7"/>
<stop offset="1" stop-color="#D9D9D9" stop-opacity="0"/>
</linearGradient>
</defs>
</svg>
